<svg width="1240" height="50" viewBox="0 0 1240 50" fill="none" xmlns="http://www.w3.org/2000/svg">
<path d="M3.55 28.1C1.5 28.1 0.25 27.37 0.25 25.67V25.61H2.13V25.82C2.13 26.27 2.29 26.39 3.55 26.39C4.69 26.39 4.81 26.3 4.81 26C4.81 25.76 4.68 25.66 4.13 25.59L2.03 25.31C0.78 25.14 0.15 24.47 0.15 23.39C0.15 22.32 0.98 21.2 3.4 21.2C5.53 21.2 6.55 22.13 6.55 23.63V23.69H4.67V23.54C4.67 23.06 4.46 22.9 3.2 22.9C2.24 22.9 2.03 23.03 2.03 23.32C2.03 23.53 2.15 23.63 2.51 23.68L4.61 23.99C6.25 24.23 6.69 25.07 6.69 25.93C6.69 27.08 5.81 28.1 3.55 28.1ZM14.0159 28H12.1359V21.3H15.8459C17.4359 21.3 18.4359 22.21 18.4359 23.8C18.4359 25.39 17.4359 26.31 15.8459 26.31H14.0159V28ZM15.6359 22.99H14.0159V24.62H15.6359C16.2959 24.62 16.5659 24.49 16.5659 23.8C16.5659 23.12 16.2959 22.99 15.6359 22.99ZM27.4452 28.1C25.1152 28.1 23.7352 26.74 23.7352 24.65C23.7352 22.56 25.1152 21.2 27.4452 21.2C29.8352 21.2 31.1952 22.56 31.1952 24.65C31.1952 26.74 29.8352 28.1 27.4452 28.1ZM27.4452 26.3C28.8052 26.3 29.1952 25.98 29.1952 24.65C29.1952 23.32 28.8052 23 27.4452 23C26.0852 23 25.7352 23.32 25.7352 24.65C25.7352 25.98 26.0852 26.3 27.4452 26.3ZM40.7965 28H38.9165V22.99H36.5465V21.3H43.1565V22.99H40.7965V28ZM52.7105 28H50.8305V22.99H48.4605V21.3H55.0705V22.99H52.7105V28ZM62.2346 28H60.1246L63.0146 21.3H65.7046L68.6046 28H66.4446L65.9346 26.76H62.7546L62.2346 28ZM63.8546 24.13L63.4646 25.07H65.2446L64.8546 24.13L64.4146 23H64.2846L63.8546 24.13Z" fill="#101012"/>
<rect x="73" y="18.5" width="19" height="13" rx="2" fill="#5378F6"/>
<path d="M78.33 27.5H77.28V22.81H78.4L80.08 25.029L80.724 26.016H80.801L80.752 25.071V22.81H81.802V27.5H80.682L78.953 25.26L78.358 24.378H78.288L78.33 25.239V27.5ZM84.5711 27.57C83.8571 27.57 83.2924 27.353 82.8771 26.919C82.4618 26.4803 82.2541 25.8923 82.2541 25.155C82.2541 24.4177 82.4874 23.832 82.9541 23.398C83.4208 22.9593 84.0554 22.74 84.8581 22.74C85.5954 22.74 86.1788 22.9033 86.6081 23.23C87.0421 23.552 87.2591 23.993 87.2591 24.553V24.609H86.0901V24.553C86.0901 24.2777 85.9898 24.0747 85.7891 23.944C85.5931 23.8133 85.2734 23.748 84.8301 23.748C84.2934 23.748 83.9154 23.853 83.6961 24.063C83.4768 24.273 83.3671 24.637 83.3671 25.155C83.3671 25.673 83.4721 26.037 83.6821 26.247C83.8968 26.457 84.2631 26.562 84.7811 26.562C85.3224 26.562 85.6934 26.5107 85.8941 26.408C86.0948 26.3007 86.2021 26.0977 86.2161 25.799H84.6271V25.022H87.2661V27.5H86.2931V26.492H86.2371C86.0504 27.2107 85.4951 27.57 84.5711 27.57Z" fill="white"/>
<g clip-path="url(#clip0_559_22838)">
<path d="M1195.04 30.5V20.3182H1196.89V28.9538H1201.37V30.5H1195.04ZM1212.37 25.4091C1212.37 26.5062 1212.17 27.4458 1211.76 28.228C1211.35 29.0069 1210.79 29.6035 1210.09 30.0178C1209.38 30.4321 1208.59 30.6392 1207.7 30.6392C1206.8 30.6392 1206 30.4321 1205.3 30.0178C1204.6 29.6001 1204.04 29.0019 1203.63 28.223C1203.22 27.4408 1203.02 26.5028 1203.02 25.4091C1203.02 24.312 1203.22 23.3741 1203.63 22.5952C1204.04 21.813 1204.6 21.2147 1205.3 20.8004C1206 20.3861 1206.8 20.179 1207.7 20.179C1208.59 20.179 1209.38 20.3861 1210.09 20.8004C1210.79 21.2147 1211.35 21.813 1211.76 22.5952C1212.17 23.3741 1212.37 24.312 1212.37 25.4091ZM1210.52 25.4091C1210.52 24.6368 1210.4 23.9856 1210.16 23.4553C1209.92 22.9216 1209.59 22.5189 1209.16 22.2472C1208.74 21.9721 1208.25 21.8345 1207.7 21.8345C1207.14 21.8345 1206.65 21.9721 1206.23 22.2472C1205.8 22.5189 1205.47 22.9216 1205.23 23.4553C1204.99 23.9856 1204.87 24.6368 1204.87 25.4091C1204.87 26.1813 1204.99 26.8343 1205.23 27.3679C1205.47 27.8982 1205.8 28.3009 1206.23 28.576C1206.65 28.8478 1207.14 28.9837 1207.7 28.9837C1208.25 28.9837 1208.74 28.8478 1209.16 28.576C1209.59 28.3009 1209.92 27.8982 1210.16 27.3679C1210.4 26.8343 1210.52 26.1813 1210.52 25.4091ZM1221.64 23.5696C1221.56 23.3011 1221.44 23.0608 1221.3 22.8487C1221.15 22.6333 1220.98 22.4493 1220.78 22.2969C1220.58 22.1444 1220.35 22.0301 1220.09 21.9538C1219.83 21.8743 1219.55 21.8345 1219.25 21.8345C1218.7 21.8345 1218.21 21.9721 1217.79 22.2472C1217.36 22.5223 1217.02 22.9266 1216.78 23.4602C1216.53 23.9905 1216.41 24.6368 1216.41 25.3991C1216.41 26.1681 1216.53 26.8194 1216.78 27.353C1217.02 27.8866 1217.35 28.2926 1217.79 28.571C1218.22 28.8461 1218.72 28.9837 1219.29 28.9837C1219.8 28.9837 1220.25 28.8842 1220.63 28.6854C1221.01 28.4865 1221.3 28.2048 1221.51 27.8402C1221.71 27.4723 1221.82 27.0414 1221.82 26.5476L1222.23 26.6122H1219.47V25.1705H1223.6V26.3935C1223.6 27.2652 1223.42 28.0192 1223.05 28.6555C1222.67 29.2919 1222.16 29.7824 1221.51 30.1271C1220.86 30.4685 1220.12 30.6392 1219.28 30.6392C1218.34 30.6392 1217.52 30.4287 1216.81 30.0078C1216.1 29.5836 1215.55 28.982 1215.15 28.2031C1214.76 27.4209 1214.56 26.4929 1214.56 25.419C1214.56 24.5971 1214.67 23.8629 1214.91 23.2166C1215.14 22.5703 1215.47 22.0218 1215.89 21.571C1216.31 21.117 1216.81 20.7723 1217.37 20.5369C1217.94 20.2983 1218.56 20.179 1219.22 20.179C1219.79 20.179 1220.31 20.2618 1220.8 20.4276C1221.29 20.59 1221.72 20.822 1222.1 21.1236C1222.48 21.4252 1222.79 21.7831 1223.04 22.1974C1223.28 22.6117 1223.44 23.0691 1223.52 23.5696H1221.64ZM1227.93 20.3182V30.5H1226.09V20.3182H1227.93ZM1238.99 20.3182V30.5H1237.35L1232.56 23.5646H1232.47V30.5H1230.63V20.3182H1232.28L1237.07 27.2585H1237.16V20.3182H1238.99Z" fill="#557FF2"/>
</g>
<defs>
<clipPath id="clip0_559_22838">
<rect x="1138" y="16.5" width="102" height="17" rx="6" fill="white"/>
</clipPath>
</defs>
</svg>
