<svg width="1087" height="50" viewBox="0 0 1087 50" fill="none" xmlns="http://www.w3.org/2000/svg">
<path d="M3.55 28.1C1.5 28.1 0.25 27.37 0.25 25.67V25.61H2.13V25.82C2.13 26.27 2.29 26.39 3.55 26.39C4.69 26.39 4.81 26.3 4.81 26C4.81 25.76 4.68 25.66 4.13 25.59L2.03 25.31C0.78 25.14 0.15 24.47 0.15 23.39C0.15 22.32 0.98 21.2 3.4 21.2C5.53 21.2 6.55 22.13 6.55 23.63V23.69H4.67V23.54C4.67 23.06 4.46 22.9 3.2 22.9C2.24 22.9 2.03 23.03 2.03 23.32C2.03 23.53 2.15 23.63 2.51 23.68L4.61 23.99C6.25 24.23 6.69 25.07 6.69 25.93C6.69 27.08 5.81 28.1 3.55 28.1ZM14.0159 28H12.1359V21.3H15.8459C17.4359 21.3 18.4359 22.21 18.4359 23.8C18.4359 25.39 17.4359 26.31 15.8459 26.31H14.0159V28ZM15.6359 22.99H14.0159V24.62H15.6359C16.2959 24.62 16.5659 24.49 16.5659 23.8C16.5659 23.12 16.2959 22.99 15.6359 22.99ZM27.4452 28.1C25.1152 28.1 23.7352 26.74 23.7352 24.65C23.7352 22.56 25.1152 21.2 27.4452 21.2C29.8352 21.2 31.1952 22.56 31.1952 24.65C31.1952 26.74 29.8352 28.1 27.4452 28.1ZM27.4452 26.3C28.8052 26.3 29.1952 25.98 29.1952 24.65C29.1952 23.32 28.8052 23 27.4452 23C26.0852 23 25.7352 23.32 25.7352 24.65C25.7352 25.98 26.0852 26.3 27.4452 26.3ZM40.7965 28H38.9165V22.99H36.5465V21.3H43.1565V22.99H40.7965V28ZM52.7105 28H50.8305V22.99H48.4605V21.3H55.0705V22.99H52.7105V28ZM62.2346 28H60.1246L63.0146 21.3H65.7046L68.6046 28H66.4446L65.9346 26.76H62.7546L62.2346 28ZM63.8546 24.13L63.4646 25.07H65.2446L64.8546 24.13L64.4146 23H64.2846L63.8546 24.13Z" fill="#101012"/>
<rect x="73" y="18.5" width="19" height="13" rx="2" fill="#5378F6"/>
<path d="M78.33 27.5H77.28V22.81H78.4L80.08 25.029L80.724 26.016H80.801L80.752 25.071V22.81H81.802V27.5H80.682L78.953 25.26L78.358 24.378H78.288L78.33 25.239V27.5ZM84.5711 27.57C83.8571 27.57 83.2924 27.353 82.8771 26.919C82.4618 26.4803 82.2541 25.8923 82.2541 25.155C82.2541 24.4177 82.4874 23.832 82.9541 23.398C83.4208 22.9593 84.0554 22.74 84.8581 22.74C85.5954 22.74 86.1788 22.9033 86.6081 23.23C87.0421 23.552 87.2591 23.993 87.2591 24.553V24.609H86.0901V24.553C86.0901 24.2777 85.9898 24.0747 85.7891 23.944C85.5931 23.8133 85.2734 23.748 84.8301 23.748C84.2934 23.748 83.9154 23.853 83.6961 24.063C83.4768 24.273 83.3671 24.637 83.3671 25.155C83.3671 25.673 83.4721 26.037 83.6821 26.247C83.8968 26.457 84.2631 26.562 84.7811 26.562C85.3224 26.562 85.6934 26.5107 85.8941 26.408C86.0948 26.3007 86.2021 26.0977 86.2161 25.799H84.6271V25.022H87.2661V27.5H86.2931V26.492H86.2371C86.0504 27.2107 85.4951 27.57 84.5711 27.57Z" fill="white"/>
<rect x="134.5" y="0.5" width="777" height="49" rx="5.5" fill="#FBFAFC"/>
<rect x="134.5" y="0.5" width="777" height="49" rx="5.5" stroke="#D4DCF1"/>
<path d="M153.407 29.1481C156.025 29.1481 158.148 27.0256 158.148 24.4074C158.148 21.7892 156.025 19.6667 153.407 19.6667C150.789 19.6667 148.667 21.7892 148.667 24.4074C148.667 27.0256 150.789 29.1481 153.407 29.1481Z" stroke="#3366FF" stroke-width="1.18519" stroke-linecap="round" stroke-linejoin="round"/>
<path d="M159.333 30.333L156.755 27.7552" stroke="#0D2159" stroke-width="1.18519" stroke-linecap="round" stroke-linejoin="round"/>
<path d="M173.233 30V19.8182H176.793C177.502 19.8182 178.087 19.9408 178.548 20.1861C179.008 20.428 179.351 20.7545 179.577 21.1655C179.802 21.5732 179.915 22.0256 179.915 22.5227C179.915 22.9602 179.837 23.3215 179.681 23.6065C179.529 23.8916 179.326 24.117 179.075 24.2827C178.826 24.4484 178.556 24.571 178.264 24.6506V24.75C178.576 24.7699 178.889 24.8793 179.204 25.0781C179.519 25.277 179.782 25.562 179.994 25.9332C180.206 26.3045 180.312 26.7585 180.312 27.2955C180.312 27.8059 180.196 28.2649 179.964 28.6726C179.732 29.0803 179.366 29.4034 178.866 29.642C178.365 29.8807 177.714 30 176.912 30H173.233ZM174.466 28.9062H176.912C177.717 28.9062 178.289 28.7505 178.627 28.4389C178.969 28.1241 179.139 27.7429 179.139 27.2955C179.139 26.9508 179.051 26.6326 178.876 26.3409C178.7 26.0459 178.45 25.8106 178.125 25.6349C177.8 25.456 177.416 25.3665 176.972 25.3665H174.466V28.9062ZM174.466 24.2926H176.753C177.124 24.2926 177.459 24.2197 177.757 24.0739C178.059 23.928 178.297 23.7225 178.473 23.4574C178.652 23.1922 178.741 22.8807 178.741 22.5227C178.741 22.0753 178.586 21.6958 178.274 21.3842C177.963 21.0694 177.469 20.9119 176.793 20.9119H174.466V24.2926ZM185.317 30.1591C184.627 30.1591 184.022 29.995 183.502 29.6669C182.985 29.3388 182.581 28.8797 182.289 28.2898C182.001 27.6998 181.856 27.0104 181.856 26.2216C181.856 25.4261 182.001 24.7318 182.289 24.1385C182.581 23.5452 182.985 23.0845 183.502 22.7564C184.022 22.4283 184.627 22.2642 185.317 22.2642C186.006 22.2642 186.609 22.4283 187.126 22.7564C187.647 23.0845 188.051 23.5452 188.339 24.1385C188.631 24.7318 188.777 25.4261 188.777 26.2216C188.777 27.0104 188.631 27.6998 188.339 28.2898C188.051 28.8797 187.647 29.3388 187.126 29.6669C186.609 29.995 186.006 30.1591 185.317 30.1591ZM185.317 29.1051C185.84 29.1051 186.271 28.9709 186.609 28.7024C186.947 28.4339 187.198 28.081 187.36 27.6435C187.522 27.206 187.604 26.732 187.604 26.2216C187.604 25.7112 187.522 25.2356 187.36 24.7947C187.198 24.3539 186.947 23.9976 186.609 23.7259C186.271 23.4541 185.84 23.3182 185.317 23.3182C184.793 23.3182 184.362 23.4541 184.024 23.7259C183.686 23.9976 183.436 24.3539 183.273 24.7947C183.111 25.2356 183.03 25.7112 183.03 26.2216C183.03 26.732 183.111 27.206 183.273 27.6435C183.436 28.081 183.686 28.4339 184.024 28.7024C184.362 28.9709 184.793 29.1051 185.317 29.1051ZM191.776 25.4062V30H190.603V22.3636H191.736V23.5568H191.836C192.015 23.169 192.287 22.8575 192.651 22.6222C193.016 22.3835 193.486 22.2642 194.063 22.2642C194.58 22.2642 195.033 22.3703 195.42 22.5824C195.808 22.7912 196.11 23.1094 196.325 23.5369C196.541 23.9612 196.648 24.4981 196.648 25.1477V30H195.475V25.2273C195.475 24.6274 195.319 24.16 195.008 23.8253C194.696 23.4872 194.269 23.3182 193.725 23.3182C193.35 23.3182 193.016 23.3994 192.721 23.5618C192.429 23.7242 192.199 23.9612 192.03 24.2727C191.861 24.5843 191.776 24.9621 191.776 25.4062ZM200.001 25.4062V30H198.827V22.3636H199.961V23.5568H200.06C200.239 23.169 200.511 22.8575 200.876 22.6222C201.24 22.3835 201.711 22.2642 202.288 22.2642C202.805 22.2642 203.257 22.3703 203.645 22.5824C204.033 22.7912 204.334 23.1094 204.55 23.5369C204.765 23.9612 204.873 24.4981 204.873 25.1477V30H203.699V25.2273C203.699 24.6274 203.544 24.16 203.232 23.8253C202.921 23.4872 202.493 23.3182 201.949 23.3182C201.575 23.3182 201.24 23.3994 200.945 23.5618C200.654 23.7242 200.423 23.9612 200.254 24.2727C200.085 24.5843 200.001 24.9621 200.001 25.4062ZM207.534 32.8636C207.335 32.8636 207.158 32.8471 207.002 32.8139C206.846 32.7841 206.739 32.7543 206.679 32.7244L206.977 31.6903C207.262 31.7633 207.514 31.7898 207.733 31.7699C207.952 31.75 208.146 31.6522 208.315 31.4766C208.487 31.3042 208.644 31.0241 208.787 30.6364L209.006 30.0398L206.182 22.3636H207.454L209.562 28.4489H209.642L211.75 22.3636H213.023L209.781 31.1136C209.635 31.508 209.455 31.8345 209.239 32.093C209.024 32.3549 208.774 32.5488 208.489 32.6747C208.207 32.8007 207.889 32.8636 207.534 32.8636ZM220.826 30.179C220.342 30.179 219.903 30.0878 219.508 29.9055C219.114 29.7199 218.801 29.4531 218.569 29.1051C218.337 28.7538 218.221 28.3295 218.221 27.8324C218.221 27.3949 218.307 27.0402 218.479 26.7685C218.652 26.4934 218.882 26.2779 219.17 26.1222C219.459 25.9664 219.777 25.8504 220.125 25.7741C220.476 25.6946 220.829 25.6316 221.184 25.5852C221.648 25.5256 222.024 25.4808 222.312 25.451C222.604 25.4179 222.816 25.3632 222.949 25.2869C223.085 25.2107 223.153 25.0781 223.153 24.8892V24.8494C223.153 24.3589 223.018 23.9777 222.75 23.706C222.485 23.4342 222.082 23.2983 221.542 23.2983C220.982 23.2983 220.543 23.4209 220.224 23.6662C219.906 23.9115 219.682 24.1733 219.553 24.4517L218.44 24.054C218.638 23.59 218.904 23.2287 219.235 22.9702C219.57 22.7083 219.934 22.526 220.329 22.4233C220.727 22.3172 221.118 22.2642 221.502 22.2642C221.747 22.2642 222.029 22.294 222.347 22.3537C222.669 22.41 222.979 22.5277 223.277 22.7067C223.579 22.8857 223.829 23.1558 224.028 23.517C224.227 23.8783 224.326 24.3622 224.326 24.9688V30H223.153V28.9659H223.093C223.013 29.1316 222.881 29.3089 222.695 29.4979C222.51 29.6868 222.263 29.8475 221.954 29.9801C221.646 30.1127 221.27 30.179 220.826 30.179ZM221.005 29.125C221.469 29.125 221.86 29.0339 222.178 28.8516C222.5 28.6693 222.742 28.4339 222.904 28.1456C223.07 27.8572 223.153 27.554 223.153 27.2358V26.1619C223.103 26.2216 222.994 26.2763 222.825 26.326C222.659 26.3724 222.467 26.4138 222.248 26.4503C222.032 26.4834 221.822 26.5133 221.616 26.5398C221.414 26.563 221.25 26.5829 221.124 26.5994C220.819 26.6392 220.534 26.7038 220.269 26.7933C220.007 26.8795 219.795 27.0104 219.633 27.1861C219.474 27.3584 219.394 27.5937 219.394 27.892C219.394 28.2997 219.545 28.608 219.847 28.8168C220.151 29.0223 220.538 29.125 221.005 29.125ZM227.676 25.4062V30H226.502V22.3636H227.636V23.5568H227.735C227.914 23.169 228.186 22.8575 228.551 22.6222C228.915 22.3835 229.386 22.2642 229.963 22.2642C230.48 22.2642 230.932 22.3703 231.32 22.5824C231.708 22.7912 232.009 23.1094 232.225 23.5369C232.44 23.9612 232.548 24.4981 232.548 25.1477V30H231.375V25.2273C231.375 24.6274 231.219 24.16 230.907 23.8253C230.596 23.4872 230.168 23.3182 229.625 23.3182C229.25 23.3182 228.915 23.3994 228.62 23.5618C228.329 23.7242 228.098 23.9612 227.929 24.2727C227.76 24.5843 227.676 24.9621 227.676 25.4062ZM237.61 30.1591C236.974 30.1591 236.412 29.9983 235.925 29.6768C235.438 29.352 235.057 28.8946 234.782 28.3047C234.507 27.7114 234.369 27.0104 234.369 26.2017C234.369 25.3996 234.507 24.7036 234.782 24.1136C235.057 23.5237 235.44 23.0679 235.93 22.7464C236.421 22.425 236.987 22.2642 237.63 22.2642C238.127 22.2642 238.52 22.3471 238.809 22.5128C239.1 22.6752 239.322 22.8608 239.475 23.0696C239.631 23.2751 239.752 23.4441 239.838 23.5767H239.937V19.8182H241.11V30H239.977V28.8267H239.838C239.752 28.9659 239.629 29.1416 239.47 29.3537C239.311 29.5625 239.084 29.7498 238.789 29.9155C238.494 30.0779 238.101 30.1591 237.61 30.1591ZM237.77 29.1051C238.24 29.1051 238.638 28.9825 238.963 28.7372C239.288 28.4886 239.534 28.1456 239.703 27.7081C239.873 27.2673 239.957 26.7585 239.957 26.1818C239.957 25.6117 239.874 25.1129 239.708 24.6854C239.543 24.2545 239.297 23.9197 238.973 23.6811C238.648 23.4392 238.247 23.3182 237.77 23.3182C237.272 23.3182 236.858 23.4458 236.527 23.701C236.199 23.9529 235.952 24.2959 235.786 24.7301C235.623 25.161 235.542 25.6449 235.542 26.1818C235.542 26.7254 235.625 27.2192 235.791 27.6634C235.96 28.1042 236.208 28.4555 236.537 28.7173C236.868 28.9759 237.279 29.1051 237.77 29.1051ZM255.782 23H254.549C254.476 22.6454 254.349 22.3338 254.166 22.0653C253.987 21.7969 253.768 21.5715 253.51 21.3892C253.255 21.2036 252.971 21.0644 252.66 20.9716C252.348 20.8788 252.023 20.8324 251.685 20.8324C251.069 20.8324 250.51 20.9882 250.01 21.2997C249.513 21.6113 249.117 22.0703 248.822 22.6768C248.53 23.2834 248.384 24.0275 248.384 24.9091C248.384 25.7907 248.53 26.5348 248.822 27.1413C249.117 27.7479 249.513 28.2069 250.01 28.5185C250.51 28.83 251.069 28.9858 251.685 28.9858C252.023 28.9858 252.348 28.9394 252.66 28.8466C252.971 28.7538 253.255 28.6162 253.51 28.4339C253.768 28.2483 253.987 28.0213 254.166 27.7528C254.349 27.4811 254.476 27.1695 254.549 26.8182H255.782C255.689 27.3385 255.52 27.8042 255.275 28.2152C255.03 28.6262 254.725 28.9759 254.36 29.2642C253.996 29.5492 253.586 29.7663 253.132 29.9155C252.681 30.0646 252.199 30.1392 251.685 30.1392C250.817 30.1392 250.045 29.9271 249.369 29.5028C248.693 29.0786 248.161 28.4754 247.773 27.6932C247.385 26.911 247.191 25.983 247.191 24.9091C247.191 23.8352 247.385 22.9072 247.773 22.125C248.161 21.3428 248.693 20.7396 249.369 20.3153C250.045 19.8911 250.817 19.679 251.685 19.679C252.199 19.679 252.681 19.7536 253.132 19.9027C253.586 20.0518 253.996 20.2706 254.36 20.5589C254.725 20.844 255.03 21.192 255.275 21.603C255.52 22.0107 255.689 22.4763 255.782 23ZM258.824 19.8182V30H257.65V19.8182H258.824ZM261.763 32.8636C261.564 32.8636 261.387 32.8471 261.231 32.8139C261.075 32.7841 260.968 32.7543 260.908 32.7244L261.206 31.6903C261.491 31.7633 261.743 31.7898 261.962 31.7699C262.181 31.75 262.375 31.6522 262.544 31.4766C262.716 31.3042 262.874 31.0241 263.016 30.6364L263.235 30.0398L260.411 22.3636H261.684L263.792 28.4489H263.871L265.979 22.3636H267.252L264.01 31.1136C263.865 31.508 263.684 31.8345 263.468 32.093C263.253 32.3549 263.003 32.5488 262.718 32.6747C262.436 32.8007 262.118 32.8636 261.763 32.8636ZM271.446 30.1591C270.809 30.1591 270.247 29.9983 269.76 29.6768C269.273 29.352 268.892 28.8946 268.617 28.3047C268.342 27.7114 268.204 27.0104 268.204 26.2017C268.204 25.3996 268.342 24.7036 268.617 24.1136C268.892 23.5237 269.275 23.0679 269.765 22.7464C270.256 22.425 270.822 22.2642 271.465 22.2642C271.963 22.2642 272.355 22.3471 272.644 22.5128C272.935 22.6752 273.157 22.8608 273.31 23.0696C273.466 23.2751 273.587 23.4441 273.673 23.5767H273.772V19.8182H274.946V30H273.812V28.8267H273.673C273.587 28.9659 273.464 29.1416 273.305 29.3537C273.146 29.5625 272.919 29.7498 272.624 29.9155C272.329 30.0779 271.936 30.1591 271.446 30.1591ZM271.605 29.1051C272.075 29.1051 272.473 28.9825 272.798 28.7372C273.123 28.4886 273.37 28.1456 273.539 27.7081C273.708 27.2673 273.792 26.7585 273.792 26.1818C273.792 25.6117 273.709 25.1129 273.544 24.6854C273.378 24.2545 273.133 23.9197 272.808 23.6811C272.483 23.4392 272.082 23.3182 271.605 23.3182C271.108 23.3182 270.693 23.4458 270.362 23.701C270.034 23.9529 269.787 24.2959 269.621 24.7301C269.459 25.161 269.377 25.6449 269.377 26.1818C269.377 26.7254 269.46 27.2192 269.626 27.6634C269.795 28.1042 270.044 28.4555 270.372 28.7173C270.703 28.9759 271.114 29.1051 271.605 29.1051ZM280.494 30.1591C279.758 30.1591 279.124 29.9967 278.59 29.6719C278.06 29.3438 277.65 28.8864 277.362 28.2997C277.077 27.7098 276.934 27.0237 276.934 26.2415C276.934 25.4593 277.077 24.7699 277.362 24.1733C277.65 23.5734 278.051 23.1061 278.565 22.7713C279.082 22.4332 279.685 22.2642 280.375 22.2642C280.772 22.2642 281.165 22.3305 281.553 22.4631C281.941 22.5956 282.294 22.8111 282.612 23.1094C282.93 23.4044 283.184 23.7955 283.373 24.2827C283.562 24.7699 283.656 25.3698 283.656 26.0824V26.5795H277.77V25.5653H282.463C282.463 25.1345 282.377 24.75 282.204 24.4119C282.035 24.0739 281.793 23.8071 281.478 23.6115C281.167 23.416 280.799 23.3182 280.375 23.3182C279.907 23.3182 279.503 23.4342 279.162 23.6662C278.824 23.8949 278.563 24.1932 278.381 24.5611C278.199 24.929 278.108 25.3234 278.108 25.7443V26.4205C278.108 26.9972 278.207 27.486 278.406 27.8871C278.608 28.2848 278.888 28.5881 279.246 28.7969C279.604 29.0024 280.02 29.1051 280.494 29.1051C280.802 29.1051 281.081 29.062 281.329 28.9759C281.581 28.8864 281.798 28.7538 281.981 28.5781C282.163 28.3991 282.304 28.1771 282.403 27.9119L283.537 28.2301C283.417 28.6146 283.217 28.9527 282.935 29.2443C282.653 29.5327 282.305 29.758 281.891 29.9205C281.477 30.0795 281.011 30.1591 280.494 30.1591ZM295.176 22.3636C295.116 21.8598 294.874 21.4688 294.45 21.1903C294.025 20.9119 293.505 20.7727 292.889 20.7727C292.438 20.7727 292.043 20.8456 291.705 20.9915C291.371 21.1373 291.109 21.3378 290.92 21.593C290.734 21.8482 290.641 22.1383 290.641 22.4631C290.641 22.7348 290.706 22.9685 290.835 23.1641C290.968 23.3563 291.137 23.517 291.342 23.6463C291.548 23.7723 291.763 23.8767 291.989 23.9595C292.214 24.0391 292.421 24.1037 292.61 24.1534L293.644 24.4318C293.909 24.5014 294.204 24.5975 294.529 24.7202C294.857 24.8428 295.171 25.0102 295.469 25.2223C295.771 25.4311 296.019 25.6996 296.215 26.0277C296.41 26.3558 296.508 26.7585 296.508 27.2358C296.508 27.786 296.364 28.2831 296.075 28.7273C295.79 29.1714 295.373 29.5244 294.823 29.7862C294.276 30.0481 293.611 30.179 292.829 30.179C292.1 30.179 291.468 30.0613 290.935 29.826C290.405 29.5907 289.987 29.2625 289.682 28.8416C289.38 28.4207 289.21 27.9318 289.17 27.375H290.443C290.476 27.7595 290.605 28.0777 290.83 28.3295C291.059 28.5781 291.347 28.7637 291.695 28.8864C292.047 29.0057 292.425 29.0653 292.829 29.0653C293.3 29.0653 293.722 28.9891 294.097 28.8366C294.471 28.6809 294.768 28.4654 294.987 28.1903C295.205 27.9119 295.315 27.5871 295.315 27.2159C295.315 26.8778 295.22 26.6027 295.031 26.3906C294.842 26.1785 294.594 26.0062 294.286 25.8736C293.977 25.741 293.644 25.625 293.286 25.5256L292.034 25.1676C291.238 24.9389 290.608 24.6125 290.144 24.1882C289.68 23.764 289.448 23.2088 289.448 22.5227C289.448 21.9527 289.602 21.4555 289.911 21.0312C290.222 20.6037 290.64 20.2723 291.164 20.0369C291.691 19.7983 292.279 19.679 292.928 19.679C293.585 19.679 294.168 19.7966 294.678 20.032C295.189 20.264 295.593 20.5821 295.891 20.9865C296.193 21.3909 296.352 21.8499 296.369 22.3636H295.176ZM301.732 22.3636V23.358H297.775V22.3636H301.732ZM298.928 20.5341H300.101V27.8125C300.101 28.1439 300.149 28.3925 300.246 28.5582C300.345 28.7206 300.471 28.83 300.623 28.8864C300.779 28.9394 300.943 28.9659 301.116 28.9659C301.245 28.9659 301.351 28.9593 301.434 28.946C301.517 28.9295 301.583 28.9162 301.633 28.9062L301.871 29.9602C301.792 29.9901 301.681 30.0199 301.538 30.0497C301.396 30.0829 301.215 30.0994 300.996 30.0994C300.665 30.0994 300.34 30.0282 300.022 29.8857C299.707 29.7431 299.445 29.526 299.236 29.2344C299.031 28.9427 298.928 28.5748 298.928 28.1307V20.5341ZM303.532 30V22.3636H304.666V23.517H304.745C304.884 23.1392 305.136 22.8326 305.501 22.5973C305.865 22.362 306.276 22.2443 306.734 22.2443C306.82 22.2443 306.928 22.246 307.057 22.2493C307.186 22.2526 307.284 22.2576 307.35 22.2642V23.4574C307.31 23.4474 307.219 23.4325 307.077 23.4126C306.938 23.3894 306.79 23.3778 306.634 23.3778C306.263 23.3778 305.932 23.4557 305.64 23.6115C305.352 23.764 305.123 23.9761 304.954 24.2479C304.788 24.5163 304.705 24.8229 304.705 25.1676V30H303.532ZM311.745 30.1591C311.009 30.1591 310.375 29.9967 309.841 29.6719C309.311 29.3438 308.901 28.8864 308.613 28.2997C308.328 27.7098 308.186 27.0237 308.186 26.2415C308.186 25.4593 308.328 24.7699 308.613 24.1733C308.901 23.5734 309.303 23.1061 309.816 22.7713C310.333 22.4332 310.937 22.2642 311.626 22.2642C312.024 22.2642 312.416 22.3305 312.804 22.4631C313.192 22.5956 313.545 22.8111 313.863 23.1094C314.181 23.4044 314.435 23.7955 314.624 24.2827C314.813 24.7699 314.907 25.3698 314.907 26.0824V26.5795H309.021V25.5653H313.714C313.714 25.1345 313.628 24.75 313.455 24.4119C313.286 24.0739 313.044 23.8071 312.73 23.6115C312.418 23.416 312.05 23.3182 311.626 23.3182C311.159 23.3182 310.754 23.4342 310.413 23.6662C310.075 23.8949 309.815 24.1932 309.632 24.5611C309.45 24.929 309.359 25.3234 309.359 25.7443V26.4205C309.359 26.9972 309.458 27.486 309.657 27.8871C309.859 28.2848 310.139 28.5881 310.497 28.7969C310.855 29.0024 311.271 29.1051 311.745 29.1051C312.053 29.1051 312.332 29.062 312.58 28.9759C312.832 28.8864 313.049 28.7538 313.232 28.5781C313.414 28.3991 313.555 28.1771 313.654 27.9119L314.788 28.2301C314.669 28.6146 314.468 28.9527 314.186 29.2443C313.905 29.5327 313.557 29.758 313.142 29.9205C312.728 30.0795 312.262 30.1591 311.745 30.1591ZM319.929 30.1591C319.193 30.1591 318.558 29.9967 318.025 29.6719C317.494 29.3438 317.085 28.8864 316.797 28.2997C316.512 27.7098 316.369 27.0237 316.369 26.2415C316.369 25.4593 316.512 24.7699 316.797 24.1733C317.085 23.5734 317.486 23.1061 318 22.7713C318.517 22.4332 319.12 22.2642 319.809 22.2642C320.207 22.2642 320.6 22.3305 320.988 22.4631C321.375 22.5956 321.728 22.8111 322.047 23.1094C322.365 23.4044 322.618 23.7955 322.807 24.2827C322.996 24.7699 323.091 25.3698 323.091 26.0824V26.5795H317.204V25.5653H321.897C321.897 25.1345 321.811 24.75 321.639 24.4119C321.47 24.0739 321.228 23.8071 320.913 23.6115C320.602 23.416 320.234 23.3182 319.809 23.3182C319.342 23.3182 318.938 23.4342 318.596 23.6662C318.258 23.8949 317.998 24.1932 317.816 24.5611C317.633 24.929 317.542 25.3234 317.542 25.7443V26.4205C317.542 26.9972 317.642 27.486 317.841 27.8871C318.043 28.2848 318.323 28.5881 318.681 28.7969C319.039 29.0024 319.455 29.1051 319.929 29.1051C320.237 29.1051 320.515 29.062 320.764 28.9759C321.016 28.8864 321.233 28.7538 321.415 28.5781C321.597 28.3991 321.738 28.1771 321.838 27.9119L322.971 28.2301C322.852 28.6146 322.651 28.9527 322.37 29.2443C322.088 29.5327 321.74 29.758 321.326 29.9205C320.911 30.0795 320.446 30.1591 319.929 30.1591ZM328.231 22.3636V23.358H324.274V22.3636H328.231ZM325.427 20.5341H326.601V27.8125C326.601 28.1439 326.649 28.3925 326.745 28.5582C326.844 28.7206 326.97 28.83 327.123 28.8864C327.279 28.9394 327.443 28.9659 327.615 28.9659C327.744 28.9659 327.85 28.9593 327.933 28.946C328.016 28.9295 328.082 28.9162 328.132 28.9062L328.371 29.9602C328.291 29.9901 328.18 30.0199 328.038 30.0497C327.895 30.0829 327.714 30.0994 327.496 30.0994C327.164 30.0994 326.839 30.0282 326.521 29.8857C326.206 29.7431 325.945 29.526 325.736 29.2344C325.53 28.9427 325.427 28.5748 325.427 28.1307V20.5341ZM331.781 28.608L331.702 29.1449C331.645 29.5227 331.559 29.9271 331.443 30.358C331.331 30.7888 331.213 31.1948 331.09 31.576C330.968 31.9571 330.867 32.2604 330.787 32.4858H329.892C329.935 32.2737 329.992 31.9936 330.061 31.6456C330.131 31.2976 330.2 30.9081 330.27 30.4773C330.343 30.0497 330.403 29.6122 330.449 29.1648L330.509 28.608H331.781ZM338.539 30H337.247L340.985 19.8182H342.258L345.997 30H344.704L341.662 21.429H341.582L338.539 30ZM339.017 26.0227H344.227V27.1165H339.017V26.0227ZM347.459 22.3636H348.632V30.5568C348.632 31.0275 348.551 31.4351 348.388 31.7798C348.229 32.1245 347.987 32.3913 347.662 32.5803C347.341 32.7692 346.935 32.8636 346.444 32.8636C346.405 32.8636 346.365 32.8636 346.325 32.8636C346.285 32.8636 346.246 32.8636 346.206 32.8636V31.7699C346.246 31.7699 346.282 31.7699 346.315 31.7699C346.348 31.7699 346.385 31.7699 346.425 31.7699C346.782 31.7699 347.044 31.6638 347.21 31.4517C347.376 31.2429 347.459 30.9446 347.459 30.5568V22.3636ZM348.035 21.0909C347.807 21.0909 347.609 21.013 347.444 20.8572C347.281 20.7015 347.2 20.5142 347.2 20.2955C347.2 20.0767 347.281 19.8894 347.444 19.7337C347.609 19.5779 347.807 19.5 348.035 19.5C348.264 19.5 348.46 19.5779 348.622 19.7337C348.788 19.8894 348.871 20.0767 348.871 20.2955C348.871 20.5142 348.788 20.7015 348.622 20.8572C348.46 21.013 348.264 21.0909 348.035 21.0909ZM353.063 30.179C352.579 30.179 352.14 30.0878 351.746 29.9055C351.351 29.7199 351.038 29.4531 350.806 29.1051C350.574 28.7538 350.458 28.3295 350.458 27.8324C350.458 27.3949 350.544 27.0402 350.716 26.7685C350.889 26.4934 351.119 26.2779 351.408 26.1222C351.696 25.9664 352.014 25.8504 352.362 25.7741C352.713 25.6946 353.066 25.6316 353.421 25.5852C353.885 25.5256 354.261 25.4808 354.55 25.451C354.841 25.4179 355.053 25.3632 355.186 25.2869C355.322 25.2107 355.39 25.0781 355.39 24.8892V24.8494C355.39 24.3589 355.256 23.9777 354.987 23.706C354.722 23.4342 354.319 23.2983 353.779 23.2983C353.219 23.2983 352.78 23.4209 352.461 23.6662C352.143 23.9115 351.92 24.1733 351.79 24.4517L350.677 24.054C350.876 23.59 351.141 23.2287 351.472 22.9702C351.807 22.7083 352.171 22.526 352.566 22.4233C352.964 22.3172 353.355 22.2642 353.739 22.2642C353.984 22.2642 354.266 22.294 354.584 22.3537C354.906 22.41 355.216 22.5277 355.514 22.7067C355.816 22.8857 356.066 23.1558 356.265 23.517C356.464 23.8783 356.563 24.3622 356.563 24.9688V30H355.39V28.9659H355.33C355.251 29.1316 355.118 29.3089 354.932 29.4979C354.747 29.6868 354.5 29.8475 354.192 29.9801C353.883 30.1127 353.507 30.179 353.063 30.179ZM353.242 29.125C353.706 29.125 354.097 29.0339 354.415 28.8516C354.737 28.6693 354.979 28.4339 355.141 28.1456C355.307 27.8572 355.39 27.554 355.39 27.2358V26.1619C355.34 26.2216 355.231 26.2763 355.062 26.326C354.896 26.3724 354.704 26.4138 354.485 26.4503C354.269 26.4834 354.059 26.5133 353.854 26.5398C353.651 26.563 353.487 26.5829 353.361 26.5994C353.056 26.6392 352.771 26.7038 352.506 26.7933C352.244 26.8795 352.032 27.0104 351.87 27.1861C351.711 27.3584 351.631 27.5937 351.631 27.892C351.631 28.2997 351.782 28.608 352.084 28.8168C352.389 29.0223 352.775 29.125 353.242 29.125ZM361.842 30.1591C361.152 30.1591 360.548 29.995 360.027 29.6669C359.51 29.3388 359.106 28.8797 358.814 28.2898C358.526 27.6998 358.382 27.0104 358.382 26.2216C358.382 25.4261 358.526 24.7318 358.814 24.1385C359.106 23.5452 359.51 23.0845 360.027 22.7564C360.548 22.4283 361.152 22.2642 361.842 22.2642C362.531 22.2642 363.134 22.4283 363.652 22.7564C364.172 23.0845 364.576 23.5452 364.865 24.1385C365.156 24.7318 365.302 25.4261 365.302 26.2216C365.302 27.0104 365.156 27.6998 364.865 28.2898C364.576 28.8797 364.172 29.3388 363.652 29.6669C363.134 29.995 362.531 30.1591 361.842 30.1591ZM361.842 29.1051C362.366 29.1051 362.796 28.9709 363.134 28.7024C363.473 28.4339 363.723 28.081 363.885 27.6435C364.048 27.206 364.129 26.732 364.129 26.2216C364.129 25.7112 364.048 25.2356 363.885 24.7947C363.723 24.3539 363.473 23.9976 363.134 23.7259C362.796 23.4541 362.366 23.3182 361.842 23.3182C361.318 23.3182 360.887 23.4541 360.549 23.7259C360.211 23.9976 359.961 24.3539 359.799 24.7947C359.636 25.2356 359.555 25.7112 359.555 26.2216C359.555 26.732 359.636 27.206 359.799 27.6435C359.961 28.081 360.211 28.4339 360.549 28.7024C360.887 28.9709 361.318 29.1051 361.842 29.1051ZM371.26 30V19.8182H377.405V20.9119H372.493V24.3523H377.086V25.446H372.493V28.9062H377.484V30H371.26ZM384.912 24.0739L383.858 24.3722C383.792 24.1965 383.694 24.0258 383.565 23.8601C383.439 23.6911 383.266 23.5518 383.048 23.4425C382.829 23.3331 382.549 23.2784 382.207 23.2784C381.74 23.2784 381.351 23.3861 381.039 23.6016C380.731 23.8137 380.577 24.0838 380.577 24.4119C380.577 24.7036 380.683 24.9339 380.895 25.103C381.107 25.272 381.438 25.4129 381.889 25.5256L383.023 25.804C383.705 25.9697 384.214 26.2232 384.549 26.5646C384.884 26.9027 385.051 27.3385 385.051 27.8722C385.051 28.3097 384.925 28.7008 384.673 29.0455C384.425 29.3902 384.077 29.6619 383.629 29.8608C383.182 30.0597 382.661 30.1591 382.068 30.1591C381.289 30.1591 380.645 29.9901 380.134 29.652C379.624 29.3139 379.301 28.8201 379.165 28.1705L380.278 27.892C380.384 28.303 380.585 28.6113 380.88 28.8168C381.178 29.0223 381.568 29.125 382.048 29.125C382.595 29.125 383.029 29.009 383.351 28.777C383.676 28.5417 383.838 28.2599 383.838 27.9318C383.838 27.6667 383.745 27.4446 383.56 27.2656C383.374 27.0833 383.089 26.9474 382.704 26.858L381.432 26.5597C380.732 26.3939 380.219 26.1371 379.891 25.7891C379.566 25.4377 379.403 24.9986 379.403 24.4716C379.403 24.0407 379.524 23.6596 379.766 23.3281C380.012 22.9967 380.345 22.7365 380.766 22.5476C381.19 22.3587 381.67 22.2642 382.207 22.2642C382.963 22.2642 383.556 22.4299 383.987 22.7614C384.421 23.0928 384.73 23.5303 384.912 24.0739ZM390.173 22.3636V23.358H386.216V22.3636H390.173ZM387.369 20.5341H388.543V27.8125C388.543 28.1439 388.591 28.3925 388.687 28.5582C388.786 28.7206 388.912 28.83 389.065 28.8864C389.22 28.9394 389.384 28.9659 389.557 28.9659C389.686 28.9659 389.792 28.9593 389.875 28.946C389.958 28.9295 390.024 28.9162 390.074 28.9062L390.312 29.9602C390.233 29.9901 390.122 30.0199 389.979 30.0497C389.837 30.0829 389.656 30.0994 389.437 30.0994C389.106 30.0994 388.781 30.0282 388.463 29.8857C388.148 29.7431 387.886 29.526 387.678 29.2344C387.472 28.9427 387.369 28.5748 387.369 28.1307V20.5341ZM394.22 30.179C393.736 30.179 393.297 30.0878 392.903 29.9055C392.508 29.7199 392.195 29.4531 391.963 29.1051C391.731 28.7538 391.615 28.3295 391.615 27.8324C391.615 27.3949 391.701 27.0402 391.874 26.7685C392.046 26.4934 392.276 26.2779 392.565 26.1222C392.853 25.9664 393.171 25.8504 393.519 25.7741C393.871 25.6946 394.224 25.6316 394.578 25.5852C395.042 25.5256 395.418 25.4808 395.707 25.451C395.998 25.4179 396.211 25.3632 396.343 25.2869C396.479 25.2107 396.547 25.0781 396.547 24.8892V24.8494C396.547 24.3589 396.413 23.9777 396.144 23.706C395.879 23.4342 395.476 23.2983 394.936 23.2983C394.376 23.2983 393.937 23.4209 393.619 23.6662C393.301 23.9115 393.077 24.1733 392.948 24.4517L391.834 24.054C392.033 23.59 392.298 23.2287 392.629 22.9702C392.964 22.7083 393.329 22.526 393.723 22.4233C394.121 22.3172 394.512 22.2642 394.896 22.2642C395.142 22.2642 395.423 22.294 395.742 22.3537C396.063 22.41 396.373 22.5277 396.671 22.7067C396.973 22.8857 397.223 23.1558 397.422 23.517C397.621 23.8783 397.72 24.3622 397.72 24.9688V30H396.547V28.9659H396.487C396.408 29.1316 396.275 29.3089 396.09 29.4979C395.904 29.6868 395.657 29.8475 395.349 29.9801C395.041 30.1127 394.664 30.179 394.22 30.179ZM394.399 29.125C394.863 29.125 395.254 29.0339 395.573 28.8516C395.894 28.6693 396.136 28.4339 396.298 28.1456C396.464 27.8572 396.547 27.554 396.547 27.2358V26.1619C396.497 26.2216 396.388 26.2763 396.219 26.326C396.053 26.3724 395.861 26.4138 395.642 26.4503C395.427 26.4834 395.216 26.5133 395.011 26.5398C394.809 26.563 394.645 26.5829 394.519 26.5994C394.214 26.6392 393.929 26.7038 393.663 26.7933C393.402 26.8795 393.19 27.0104 393.027 27.1861C392.868 27.3584 392.788 27.5937 392.788 27.892C392.788 28.2997 392.939 28.608 393.241 28.8168C393.546 29.0223 393.932 29.125 394.399 29.125ZM403.218 22.3636V23.358H399.26V22.3636H403.218ZM400.414 20.5341H401.587V27.8125C401.587 28.1439 401.635 28.3925 401.731 28.5582C401.831 28.7206 401.957 28.83 402.109 28.8864C402.265 28.9394 402.429 28.9659 402.601 28.9659C402.731 28.9659 402.837 28.9593 402.92 28.946C403.002 28.9295 403.069 28.9162 403.118 28.9062L403.357 29.9602C403.278 29.9901 403.166 30.0199 403.024 30.0497C402.881 30.0829 402.701 30.0994 402.482 30.0994C402.151 30.0994 401.826 30.0282 401.508 29.8857C401.193 29.7431 400.931 29.526 400.722 29.2344C400.517 28.9427 400.414 28.5748 400.414 28.1307V20.5341ZM408.137 30.1591C407.402 30.1591 406.767 29.9967 406.233 29.6719C405.703 29.3438 405.294 28.8864 405.005 28.2997C404.72 27.7098 404.578 27.0237 404.578 26.2415C404.578 25.4593 404.72 24.7699 405.005 24.1733C405.294 23.5734 405.695 23.1061 406.208 22.7713C406.726 22.4332 407.329 22.2642 408.018 22.2642C408.416 22.2642 408.809 22.3305 409.196 22.4631C409.584 22.5956 409.937 22.8111 410.255 23.1094C410.574 23.4044 410.827 23.7955 411.016 24.2827C411.205 24.7699 411.299 25.3698 411.299 26.0824V26.5795H405.413V25.5653H410.106C410.106 25.1345 410.02 24.75 409.848 24.4119C409.679 24.0739 409.437 23.8071 409.122 23.6115C408.81 23.416 408.442 23.3182 408.018 23.3182C407.551 23.3182 407.146 23.4342 406.805 23.6662C406.467 23.8949 406.207 24.1932 406.025 24.5611C405.842 24.929 405.751 25.3234 405.751 25.7443V26.4205C405.751 26.9972 405.851 27.486 406.049 27.8871C406.252 28.2848 406.532 28.5881 406.89 28.7969C407.248 29.0024 407.663 29.1051 408.137 29.1051C408.446 29.1051 408.724 29.062 408.973 28.9759C409.225 28.8864 409.442 28.7538 409.624 28.5781C409.806 28.3991 409.947 28.1771 410.047 27.9119L411.18 28.2301C411.061 28.6146 410.86 28.9527 410.578 29.2443C410.297 29.5327 409.949 29.758 409.534 29.9205C409.12 30.0795 408.654 30.1591 408.137 30.1591ZM414.869 28.608L414.79 29.1449C414.733 29.5227 414.647 29.9271 414.531 30.358C414.418 30.7888 414.301 31.1948 414.178 31.576C414.055 31.9571 413.954 32.2604 413.875 32.4858H412.98C413.023 32.2737 413.079 31.9936 413.149 31.6456C413.219 31.2976 413.288 30.9081 413.358 30.4773C413.431 30.0497 413.49 29.6122 413.537 29.1648L413.596 28.608H414.869ZM421.21 30V19.8182H422.443V28.9062H427.176V30H421.21ZM431.208 30.179C430.724 30.179 430.285 30.0878 429.89 29.9055C429.496 29.7199 429.183 29.4531 428.951 29.1051C428.719 28.7538 428.603 28.3295 428.603 27.8324C428.603 27.3949 428.689 27.0402 428.861 26.7685C429.033 26.4934 429.264 26.2779 429.552 26.1222C429.84 25.9664 430.159 25.8504 430.507 25.7741C430.858 25.6946 431.211 25.6316 431.566 25.5852C432.03 25.5256 432.406 25.4808 432.694 25.451C432.986 25.4179 433.198 25.3632 433.331 25.2869C433.466 25.2107 433.534 25.0781 433.534 24.8892V24.8494C433.534 24.3589 433.4 23.9777 433.132 23.706C432.867 23.4342 432.464 23.2983 431.924 23.2983C431.363 23.2983 430.924 23.4209 430.606 23.6662C430.288 23.9115 430.064 24.1733 429.935 24.4517L428.821 24.054C429.02 23.59 429.285 23.2287 429.617 22.9702C429.952 22.7083 430.316 22.526 430.711 22.4233C431.108 22.3172 431.499 22.2642 431.884 22.2642C432.129 22.2642 432.411 22.294 432.729 22.3537C433.05 22.41 433.36 22.5277 433.659 22.7067C433.96 22.8857 434.211 23.1558 434.409 23.517C434.608 23.8783 434.708 24.3622 434.708 24.9688V30H433.534V28.9659H433.475C433.395 29.1316 433.263 29.3089 433.077 29.4979C432.891 29.6868 432.644 29.8475 432.336 29.9801C432.028 30.1127 431.652 30.179 431.208 30.179ZM431.387 29.125C431.851 29.125 432.242 29.0339 432.56 28.8516C432.881 28.6693 433.123 28.4339 433.286 28.1456C433.452 27.8572 433.534 27.554 433.534 27.2358V26.1619C433.485 26.2216 433.375 26.2763 433.206 26.326C433.041 26.3724 432.848 26.4138 432.63 26.4503C432.414 26.4834 432.204 26.5133 431.998 26.5398C431.796 26.563 431.632 26.5829 431.506 26.5994C431.201 26.6392 430.916 26.7038 430.651 26.7933C430.389 26.8795 430.177 27.0104 430.014 27.1861C429.855 27.3584 429.776 27.5937 429.776 27.892C429.776 28.2997 429.927 28.608 430.228 28.8168C430.533 29.0223 430.919 29.125 431.387 29.125ZM439.967 33.0227C439.4 33.0227 438.913 32.9498 438.505 32.804C438.097 32.6615 437.758 32.4725 437.486 32.2372C437.217 32.0052 437.003 31.7566 436.844 31.4915L437.779 30.8352C437.885 30.9744 438.019 31.1335 438.182 31.3125C438.344 31.4948 438.566 31.6522 438.848 31.7848C439.133 31.9207 439.506 31.9886 439.967 31.9886C440.583 31.9886 441.092 31.8395 441.493 31.5412C441.894 31.2429 442.094 30.7756 442.094 30.1392V28.5881H441.995C441.909 28.7273 441.786 28.8996 441.627 29.1051C441.471 29.3073 441.246 29.4879 440.951 29.647C440.659 29.8028 440.265 29.8807 439.768 29.8807C439.151 29.8807 438.598 29.7348 438.107 29.4432C437.62 29.1515 437.234 28.7273 436.949 28.1705C436.667 27.6136 436.526 26.9375 436.526 26.142C436.526 25.3598 436.664 24.6787 436.939 24.0987C437.214 23.5154 437.597 23.0646 438.087 22.7464C438.578 22.425 439.145 22.2642 439.788 22.2642C440.285 22.2642 440.679 22.3471 440.971 22.5128C441.266 22.6752 441.491 22.8608 441.647 23.0696C441.806 23.2751 441.929 23.4441 442.015 23.5767H442.134V22.3636H443.268V30.2188C443.268 30.875 443.119 31.4086 442.82 31.8196C442.525 32.2339 442.128 32.5372 441.627 32.7294C441.13 32.925 440.576 33.0227 439.967 33.0227ZM439.927 28.8267C440.397 28.8267 440.795 28.719 441.12 28.5036C441.445 28.2881 441.692 27.9782 441.861 27.5739C442.03 27.1695 442.114 26.6856 442.114 26.1222C442.114 25.572 442.031 25.0864 441.866 24.6655C441.7 24.2446 441.455 23.9148 441.13 23.6761C440.805 23.4375 440.404 23.3182 439.927 23.3182C439.43 23.3182 439.015 23.4441 438.684 23.696C438.356 23.9479 438.109 24.286 437.943 24.7102C437.781 25.1345 437.7 25.6051 437.7 26.1222C437.7 26.6525 437.782 27.1214 437.948 27.5291C438.117 27.9335 438.366 28.2517 438.694 28.4837C439.025 28.7124 439.436 28.8267 439.927 28.8267ZM448.553 30.1591C447.863 30.1591 447.258 29.995 446.738 29.6669C446.221 29.3388 445.817 28.8797 445.525 28.2898C445.237 27.6998 445.092 27.0104 445.092 26.2216C445.092 25.4261 445.237 24.7318 445.525 24.1385C445.817 23.5452 446.221 23.0845 446.738 22.7564C447.258 22.4283 447.863 22.2642 448.553 22.2642C449.242 22.2642 449.845 22.4283 450.362 22.7564C450.883 23.0845 451.287 23.5452 451.575 24.1385C451.867 24.7318 452.013 25.4261 452.013 26.2216C452.013 27.0104 451.867 27.6998 451.575 28.2898C451.287 28.8797 450.883 29.3388 450.362 29.6669C449.845 29.995 449.242 30.1591 448.553 30.1591ZM448.553 29.1051C449.076 29.1051 449.507 28.9709 449.845 28.7024C450.183 28.4339 450.434 28.081 450.596 27.6435C450.758 27.206 450.84 26.732 450.84 26.2216C450.84 25.7112 450.758 25.2356 450.596 24.7947C450.434 24.3539 450.183 23.9976 449.845 23.7259C449.507 23.4541 449.076 23.3182 448.553 23.3182C448.029 23.3182 447.598 23.4541 447.26 23.7259C446.922 23.9976 446.672 24.3539 446.509 24.7947C446.347 25.2356 446.266 25.7112 446.266 26.2216C446.266 26.732 446.347 27.206 446.509 27.6435C446.672 28.081 446.922 28.4339 447.26 28.7024C447.598 28.9709 448.029 29.1051 448.553 29.1051ZM459.248 24.0739L458.194 24.3722C458.128 24.1965 458.03 24.0258 457.901 23.8601C457.775 23.6911 457.602 23.5518 457.384 23.4425C457.165 23.3331 456.885 23.2784 456.543 23.2784C456.076 23.2784 455.687 23.3861 455.375 23.6016C455.067 23.8137 454.913 24.0838 454.913 24.4119C454.913 24.7036 455.019 24.9339 455.231 25.103C455.443 25.272 455.775 25.4129 456.225 25.5256L457.359 25.804C458.042 25.9697 458.55 26.2232 458.885 26.5646C459.22 26.9027 459.387 27.3385 459.387 27.8722C459.387 28.3097 459.261 28.7008 459.009 29.0455C458.761 29.3902 458.413 29.6619 457.965 29.8608C457.518 30.0597 456.998 30.1591 456.404 30.1591C455.625 30.1591 454.981 29.9901 454.47 29.652C453.96 29.3139 453.637 28.8201 453.501 28.1705L454.615 27.892C454.721 28.303 454.921 28.6113 455.216 28.8168C455.514 29.0223 455.904 29.125 456.384 29.125C456.931 29.125 457.365 29.009 457.687 28.777C458.012 28.5417 458.174 28.2599 458.174 27.9318C458.174 27.6667 458.081 27.4446 457.896 27.2656C457.71 27.0833 457.425 26.9474 457.041 26.858L455.768 26.5597C455.069 26.3939 454.555 26.1371 454.227 25.7891C453.902 25.4377 453.74 24.9986 453.74 24.4716C453.74 24.0407 453.86 23.6596 454.102 23.3281C454.348 22.9967 454.681 22.7365 455.102 22.5476C455.526 22.3587 456.007 22.2642 456.543 22.2642C457.299 22.2642 457.892 22.4299 458.323 22.7614C458.758 23.0928 459.066 23.5303 459.248 24.0739Z" fill="#101012"/>
<path d="M896 21L888 29" stroke="#0D2159" stroke-width="1.33333" stroke-linecap="round" stroke-linejoin="round"/>
<path d="M888 21L896 29" stroke="#0D2159" stroke-width="1.33333" stroke-linecap="round" stroke-linejoin="round"/>
</svg>
